{"title":"Kung Fu Killer 2008 2DVDrip 2parts English Klam","uid":6634968,"size":2868664874,"categoryP":"video","categoryS":"movies","magnet":"?xt=urn:btih:110b8f9ca170390487d418edac9c6652e55081c1&amp;dn=Kung+Fu+Killer+2008+2DVDrip+2parts+English+Klam&amp;tr=udp%3A%2F%2Ftracker.openbittorrent.com%3A80&amp;tr=udp%3A%2F%2Fopen.demonii.com%3A1337&amp;tr=udp%3A%2F%2Ftracker.coppersurfer.tk%3A6969&amp;tr=udp%3A%2F%2Fexodus.desync.com%3A6969","seeders":9,"leechers":7,"uploader":"Klambake","files":-1,"time":1314526166,"description":"With: David Carradine, Daryl Hannah en Kay Tong Lim\n\nEen oude tempel is al eeuwenlang het centrum van de zelfverdedigingskunst. Slechts een selecte groep mensen kan hier leren hoe zij de kracht van lichaam en geest kunnen verenigen. Op de plek bereidt een monnik zich voor op een leven waarin hij als man en krijger zwaar op de proef zal worden gesteld.\n\nTo avenge the murder of his Wudang Grandmaster, White Crane (Carradine), a monk and spiritual master of the martial arts...\n\n------------------ Dutch Friends ------------------\nYou can find my Friends at: http://www.Film-Test.nl \n------ They got my dutchs subs ---- and more ------\n\nGeneral:\n\nComplete name                    : Kung Fu Killer\\Kung Fu Killer Partone.avi\nFormat                           : AVI\nFormat/Info                      : Audio Video Interleave\nFile size                        : 1.37 GiB\nDuration                         : 1h 28mn\nOverall bit rate                 : 2 218 Kbps\n\nVideo:\n\nFormat                           : MPEG-4 Visual\nFormat profile                   : Simple@L3\nFormat settings, BVOP            : No\nFormat settings, QPel            : No\nFormat settings, GMC             : No warppoints\nFormat settings, Matrix          : Default (H.263)\nCodec ID                         : XVID\nCodec ID/Hint                    : XviD\nDuration                         : 1h 28mn\nBit rate                         : 1 759 Kbps\nWidth                            : 720 pixels\nHeight                           : 434 pixels\nDisplay aspect ratio             : 1.659\nFrame rate                       : 25.000 fps\nColor space                      : YUV\nChroma subsampling               : 4:2:0\nBit depth                        : 8 bits\nScan type                        : Progressive\nBits/(Pixel*Frame)               : 0.225\nStream size                      : 1.08 GiB (79%)\nWriting library                  : XviD 1.1.2 (UTC 2006-11-01)\n\nAudio:\n\nFormat                           : AC-3\nFormat/Info                      : Audio Coding 3\nMode extension                   : CM (complete main)\nCodec ID                         : 2000\nDuration                         : 1h 28mn\nBit rate mode                    : Constant\nBit rate                         : 448 Kbps\nChannel(s)                       : 6 channels\nChannel positions                : Front: L C R, Side: L R, LFE\nSampling rate                    : 48.0 KHz\nBit depth                        : 16 bits\nStream size                      : 283 MiB (20%)\nAlignment                        : Aligned on interleaves\nInterleave, duration             : 32 ms (0.80 video frame)\nInterleave, preload duration     : 1280 ms\n\n","torrent":{"xt":"urn:btih:110b8f9ca170390487d418edac9c6652e55081c1","amp;dn":"Kung+Fu+Killer+2008+2DVDrip+2parts+English+Klam","amp;tr":["udp%3A%2F%2Ftracker.openbittorrent.com%3A80","udp%3A%2F%2Fopen.demonii.com%3A1337","udp%3A%2F%2Ftracker.coppersurfer.tk%3A6969","udp%3A%2F%2Fexodus.desync.com%3A6969"],"infoHash":"110b8f9ca170390487d418edac9c6652e55081c1","infoHashBuffer":{"type":"Buffer","data":[17,11,143,156,161,112,57,4,135,212,24,237,172,156,102,82,229,80,129,193]},"announce":[],"urlList":[]}}